# xmcd
#
# Track frame offsets:
#	150
#	20160
#	32707
#	47321
#	60848
#	73376
#	86449
#	97675
#	110368
#	120042
#	135932
#	147230
#	159345
#	170770
#	180870
#	197174
#
# Disc length: 2793 seconds
#
# Revision: 3
# Processed by: cddbd v1.5PL3 Copyright (c) Steve Scherf et al.
# Submitted via: dBpowerAMP V4.0
#
DISCID=c00ae710
DTITLE=Various Artist - The Best Of Country and Western 12 van 12
DYEAR=1900
DGENRE=Country
TTITLE0=John Denver - Ponies
TTITLE1=Willie Nelson - Shelter of your arms
TTITLE2=Don Gibson - I can't stop loving you
TTITLE3=Kenny Rogers - Uby don't take your love to town
TTITLE4=Wanad Jackson - Crazy
TTITLE5=Jonny Darrell - Son of Hickery Holler's tramp
TTITLE6=Jim Reeves - Am I losing you
TTITLE7=Charly Pride - Chrystal chandeliers
TTITLE8=Johnny Cash - Why me Lord
TTITLE9=John Denver - Two different directions
TTITLE10=Patsy Cline - Cry not for me
TTITLE11=Red Simpson - I got a beaver in my lap
TTITLE12=George Jones - Talk back trembling lips
TTITLE13=Billie Jo Spears - My own kind
TTITLE14=Lynn Anderson - When I dream
TTITLE15=Johnny Paycheck - Take this job and shove it
EXTD=
EXTT0=
EXTT1=
EXTT2=
EXTT3=
EXTT4=
EXTT5=
EXTT6=
EXTT7=
EXTT8=
EXTT9=
EXTT10=
EXTT11=
EXTT12=
EXTT13=
EXTT14=
EXTT15=
PLAYORDER=
